<?xml version="1.0" encoding="UTF-8"?> <svg xmlns="http://www.w3.org/2000/svg" width="534.533" height="506.997" viewBox="0 0 534.533 506.997"><g id="Group_8533" data-name="Group 8533" transform="translate(-720 -2469.603)"><path id="Path_7426" data-name="Path 7426" d="M778.524,488.271l-.759,20.177H749.547l1.214-22.3Z" transform="translate(177.449 2431.178)" fill="#ffefc4"></path><path id="Path_7427" data-name="Path 7427" d="M778.142,508.839H749.23l1.253-23.013L778.925,488Zm-28.186-.687h27.525l.733-19.518-27.083-2.071Z" transform="translate(177.404 2431.132)" fill="#0d0f35"></path><path id="Path_7428" data-name="Path 7428" d="M778.183,498.088l-27.728-9.566.175-2.374h27.763Z" transform="translate(177.58 2431.178)" fill="#0d0f35"></path><path id="Path_9485" data-name="Path 9485" d="M0,0H20.205V33.37H0Z" transform="translate(919.09 2958.387) rotate(-83.728)" fill="#fff"></path><path id="Path_7429" data-name="Path 7429" d="M742.321,509.983a6.043,6.043,0,0,1,1.195-3.526c1.729-2.325,3.793-5.417,9.363-5.5a15.863,15.863,0,0,1,8.112,2.413,15.628,15.628,0,0,0,16.862-.434c.225-.154.452-.317.681-.485l19.706,11.166s21.868,3.914,22.789,11.923a41.871,41.871,0,0,1,.366,6.171,2.158,2.158,0,0,1-2.194,2.058l-75.5-1.05A1.7,1.7,0,0,1,742.029,531Z" transform="translate(176.365 2433.314)" fill="#ffcb3c"></path><path id="Path_9486" data-name="Path 9486" d="M0,0H10.042V.845H0Z" transform="matrix(0.728, -0.686, 0.686, 0.728, 951.741, 2944.864)"></path><path id="Path_9489" data-name="Path 9489" d="M0,0H10.1V.846H0Z" transform="matrix(0.72, -0.694, 0.694, 0.72, 955.313, 2947)"></path><path id="Path_9490" data-name="Path 9490" d="M0,0H9.851V.845H0Z" transform="translate(959.591 2949.278) rotate(-46.152)"></path><path id="Path_7430" data-name="Path 7430" d="M788.652,523.609l-.842-.072c.8-9.206,12.042-10.061,12.156-10.069l.056.844a17.563,17.563,0,0,0-5.465,1.457c-3.612,1.66-5.6,4.3-5.905,7.84" transform="translate(182.967 2435.117)"></path><path id="Path_9505" data-name="Path 9505" d="M0,0H.846V78.916H0Z" transform="translate(918.479 2958.182) rotate(-89.203)"></path><path id="Path_7431" data-name="Path 7431" d="M778.232,507.112a1.179,1.179,0,0,1-.478-.1c-.834-.364-1.1-1.6-.8-3.664a29.99,29.99,0,0,1,5.348-12.271c1.308-1.629,2.4-2.27,3.229-1.906,1.779.776.753,5.668-1.179,10.1a26.64,26.64,0,0,1-3.368,5.833c-1.071,1.334-1.993,2.006-2.751,2.006m6.825-17.191c-.39,0-1.141.5-2.1,1.687a29.151,29.151,0,0,0-5.171,11.864c-.251,1.709-.029,2.621.3,2.766s1.15-.314,2.232-1.661a25.7,25.7,0,0,0,3.252-5.641c2.168-4.973,2.405-8.645,1.617-8.989a.35.35,0,0,0-.135-.025" transform="translate(181.384 2431.6)"></path><path id="Path_7432" data-name="Path 7432" d="M780.174,505.974c-1.387,0-2.376-.317-2.651-1.062-.668-1.822,3.577-4.462,8.115-6.13a26.605,26.605,0,0,1,6.544-1.6c2.081-.182,3.3.161,3.61,1.016s-.39,1.9-2.094,3.111a26.6,26.6,0,0,1-6.022,3.018,24.054,24.054,0,0,1-7.5,1.644m12.978-7.989c-.269,0-.569.013-.9.041a25.826,25.826,0,0,0-6.325,1.549c-5.091,1.871-7.91,4.237-7.614,5.045s3.976.787,9.069-1.083a25.825,25.825,0,0,0,5.823-2.914c1.41-1,1.914-1.791,1.79-2.13-.1-.275-.706-.507-1.846-.507" transform="translate(181.474 2432.762)"></path><path id="Path_7433" data-name="Path 7433" d="M758.034,512.115a5.454,5.454,0,1,0-5.53,5.378,5.454,5.454,0,0,0,5.53-5.378" transform="translate(177.1 2434.125)" fill="#ffcb3c"></path><path id="Path_7434" data-name="Path 7434" d="M743.91,530.313l75.389.954a2.33,2.33,0,0,0,2.354-2.579l-.6-5.608-78.909-1.1-.279,6.251a2.079,2.079,0,0,0,2.046,2.079" transform="translate(176.342 2436.345)" fill="#f9f8f7"></path><path id="Path_7435" data-name="Path 7435" d="M782.8,502.092l-35.67-2.514,16-96.487h49.447Z" transform="translate(177.1 2419.2)" fill="#ffefc4" stroke="#03122e" stroke-width="1"></path><path id="Path_9431" data-name="Path 9431" d="M0,0H471.281V17.733H0Z" transform="translate(731.407 2661.722)" fill="none" stroke="#0d0f35" stroke-width="1"></path><path id="Path_7447" data-name="Path 7447" d="M932.379,539.832h-25.4l42.688-261.575h25.4Z" transform="translate(200.153 2401.198)" fill="#0d0f35"></path><path id="Path_7448" data-name="Path 7448" d="M1018.983,539.832h25.4L1001.7,278.258h-25.4Z" transform="translate(210.149 2401.198)" fill="#0d0f35"></path><path id="Path_7449" data-name="Path 7449" d="M594.041,539.832h-25.4l42.688-261.575h25.4Z" transform="translate(151.361 2401.198)" fill="#0d0f35"></path><path id="Path_7450" data-name="Path 7450" d="M680.645,539.832h25.4L663.358,278.258h-25.4Z" transform="translate(161.357 2401.198)" fill="#0d0f35"></path><path id="Path_9470" data-name="Path 9470" d="M0,0H35.6V18.276H0Z" transform="translate(1202.688 2661.179)" fill="#0d0f35"></path><path id="Path_7451" data-name="Path 7451" d="M890.685,267.814H835.066l7.761-40.1h40.1Z" transform="translate(202.719 2393.909)" fill="#2e3347"></path><path id="Path_7452" data-name="Path 7452" d="M932.934,243.258H773.442a2.709,2.709,0,0,1-2.557-2.838V130.2a2.708,2.708,0,0,1,2.557-2.838H932.934a2.708,2.708,0,0,1,2.557,2.838V240.42a2.709,2.709,0,0,1-2.557,2.838" transform="translate(212.406 2391.982)" fill="#2e3347"></path><path id="Path_9457" data-name="Path 9457" d="M0,0H164.606V.381H0Z" transform="translate(983.292 2614.651)" fill="#f9f8f7"></path><path id="Path_7453" data-name="Path 7453" d="M839.546,239.615l49.541,21.568-4.175-21.568Z" transform="translate(203.365 2395.625)" fill="#0d0f35"></path><path id="Path_7454" data-name="Path 7454" d="M859.907,234.878a4.252,4.252,0,1,1,4.253-4.253,4.258,4.258,0,0,1-4.253,4.253m0-8.083a3.83,3.83,0,1,0,3.83,3.83,3.834,3.834,0,0,0-3.83-3.83" transform="translate(205.688 2393.716)" fill="#f9f8f7"></path><path id="Path_9458" data-name="Path 9458" d="M0,0H160.509V91.057H0Z" transform="translate(985.347 2521.356)" fill="#faf9f8"></path><path id="Path_7455" data-name="Path 7455" d="M838.239,488.271l-.759,20.177H809.262l1.214-22.3Z" transform="translate(186.061 2431.178)" fill="#ffefc4"></path><path id="Path_7456" data-name="Path 7456" d="M837.857,508.839H808.945l1.253-23.013L838.64,488Zm-28.186-.687H837.2l.733-19.518-27.083-2.071Z" transform="translate(186.015 2431.132)" fill="#0d0f35"></path><path id="Path_7457" data-name="Path 7457" d="M837.9,498.088l-27.728-9.566.175-2.374h27.763Z" transform="translate(186.192 2431.178)" fill="#0d0f35"></path><path id="Path_9487" data-name="Path 9487" d="M0,0H20.205V33.37H0Z" transform="translate(987.417 2958.387) rotate(-83.728)" fill="#fff"></path><path id="Path_7458" data-name="Path 7458" d="M802.036,509.983a6.051,6.051,0,0,1,1.195-3.526c1.729-2.325,3.793-5.417,9.363-5.5a15.863,15.863,0,0,1,8.112,2.413,15.628,15.628,0,0,0,16.862-.434c.225-.154.452-.317.681-.485l19.706,11.166s21.868,3.914,22.789,11.923a41.687,41.687,0,0,1,.366,6.171,2.158,2.158,0,0,1-2.193,2.058l-75.5-1.05A1.7,1.7,0,0,1,801.744,531Z" transform="translate(184.977 2433.314)" fill="#ffcb3c"></path><path id="Path_9488" data-name="Path 9488" d="M0,0H10.042V.845H0Z" transform="matrix(0.728, -0.686, 0.686, 0.728, 1020.068, 2944.864)"></path><path id="Path_9491" data-name="Path 9491" d="M0,0H10.1V.846H0Z" transform="matrix(0.72, -0.694, 0.694, 0.72, 1023.64, 2947)"></path><path id="Path_9492" data-name="Path 9492" d="M0,0H9.851V.845H0Z" transform="translate(1027.918 2949.278) rotate(-46.152)"></path><path id="Path_7459" data-name="Path 7459" d="M848.367,523.609l-.842-.072c.8-9.206,12.042-10.061,12.156-10.069l.056.844a17.562,17.562,0,0,0-5.465,1.457c-3.612,1.66-5.6,4.3-5.905,7.84" transform="translate(191.579 2435.117)"></path><path id="Path_9506" data-name="Path 9506" d="M0,0H.846V78.916H0Z" transform="translate(986.806 2958.182) rotate(-89.203)"></path><path id="Path_7460" data-name="Path 7460" d="M837.948,507.112a1.179,1.179,0,0,1-.478-.1c-.834-.364-1.1-1.6-.8-3.664a30.01,30.01,0,0,1,5.349-12.271c1.308-1.629,2.4-2.27,3.229-1.906,1.779.776.753,5.668-1.179,10.1a26.645,26.645,0,0,1-3.369,5.833c-1.071,1.334-1.993,2.006-2.751,2.006m6.825-17.191c-.39,0-1.141.5-2.1,1.687a29.146,29.146,0,0,0-5.171,11.864c-.251,1.709-.029,2.621.3,2.766s1.15-.314,2.232-1.661a25.7,25.7,0,0,0,3.252-5.641c2.168-4.973,2.405-8.645,1.617-8.989a.35.35,0,0,0-.135-.025" transform="translate(189.996 2431.6)"></path><path id="Path_7461" data-name="Path 7461" d="M839.889,505.974c-1.387,0-2.377-.317-2.651-1.062-.668-1.822,3.577-4.462,8.115-6.13a26.606,26.606,0,0,1,6.544-1.6c2.081-.182,3.3.161,3.61,1.016s-.39,1.9-2.094,3.111a26.6,26.6,0,0,1-6.022,3.018,24.054,24.054,0,0,1-7.5,1.644m12.978-7.989c-.269,0-.569.013-.9.041a25.828,25.828,0,0,0-6.325,1.549c-5.091,1.871-7.91,4.237-7.614,5.045s3.976.787,9.069-1.083a25.829,25.829,0,0,0,5.823-2.914c1.41-1,1.914-1.791,1.789-2.13-.1-.275-.706-.507-1.846-.507" transform="translate(190.085 2432.762)"></path><path id="Path_7462" data-name="Path 7462" d="M817.75,512.115a5.455,5.455,0,1,0-5.53,5.378,5.456,5.456,0,0,0,5.53-5.378" transform="translate(185.712 2434.125)" fill="#ffcb3c"></path><path id="Path_7463" data-name="Path 7463" d="M803.625,530.313l75.389.954a2.33,2.33,0,0,0,2.354-2.579l-.6-5.608-78.909-1.1-.279,6.251a2.079,2.079,0,0,0,2.046,2.079" transform="translate(184.953 2436.345)" fill="#f9f8f7"></path><path id="Path_7465" data-name="Path 7465" d="M955.923,353.717c-.4.029.216.109-.262.048a.249.249,0,0,1,.262-.048" transform="translate(207.173 2412.077)" fill="#1d2d47"></path><path id="Path_7467" data-name="Path 7467" d="M956.311,353.7c.086.07.366.108.143.2-.029-.065-.173-.138-.143-.2" transform="translate(207.266 2412.078)" fill="#1d2d47"></path><path id="Path_7468" data-name="Path 7468" d="M962.869,354.327c.009-.019.107.03.13.04-.093,0-.178.064-.253.027.094-.006.08-.038.122-.068" transform="translate(208.195 2412.167)" fill="#1d2d47"></path><path id="Path_7469" data-name="Path 7469" d="M964.613,354.363a1.689,1.689,0,0,1-.68.118Z" transform="translate(208.366 2412.173)" fill="#1d2d47"></path><path id="Path_7470" data-name="Path 7470" d="M966.1,354.585c.154.053.111.081-.1.079-.015-.033.054-.049.1-.079" transform="translate(208.664 2412.204)" fill="#1d2d47"></path><path id="Path_7471" data-name="Path 7471" d="M966.2,354.462a.578.578,0,0,1,.294.07c-.006-.053-.343.033-.294-.07" transform="translate(208.692 2412.187)" fill="#1d2d47"></path><path id="Path_7472" data-name="Path 7472" d="M969.581,354.622c.093,0,.3-.056.381.013-.1-.048-.452.078-.381-.013" transform="translate(209.179 2412.207)" fill="#1d2d47"></path><path id="Path_7473" data-name="Path 7473" d="M971.153,354.537a.333.333,0,0,0,.15,0c.106.029-.006.073-.1.08Z" transform="translate(209.407 2412.198)" fill="#1d2d47"></path><path id="Path_7477" data-name="Path 7477" d="M955.923,379.288c-.4.029.216.109-.262.048a.247.247,0,0,1,.262-.048" transform="translate(207.173 2415.765)" fill="#1d2d47"></path><path id="Path_7479" data-name="Path 7479" d="M956.311,379.274c.086.07.366.108.143.2-.029-.065-.173-.138-.143-.2" transform="translate(207.266 2415.765)" fill="#1d2d47"></path><path id="Path_7480" data-name="Path 7480" d="M962.869,379.9c.009-.021.107.029.13.04-.093,0-.178.063-.253.027.094-.006.08-.038.122-.068" transform="translate(208.195 2415.855)" fill="#1d2d47"></path><path id="Path_7481" data-name="Path 7481" d="M964.613,379.933a1.688,1.688,0,0,1-.68.118Z" transform="translate(208.366 2415.86)" fill="#1d2d47"></path><path id="Path_7482" data-name="Path 7482" d="M966.1,380.155c.154.053.111.08-.1.079-.015-.033.054-.049.1-.079" transform="translate(208.664 2415.892)" fill="#1d2d47"></path><path id="Path_7483" data-name="Path 7483" d="M966.2,380.033a.578.578,0,0,1,.294.07c-.006-.053-.343.033-.294-.07" transform="translate(208.692 2415.875)" fill="#1d2d47"></path><path id="Path_7484" data-name="Path 7484" d="M969.581,380.192c.093,0,.3-.056.381.013-.1-.048-.452.078-.381-.013" transform="translate(209.179 2415.894)" fill="#1d2d47"></path><path id="Path_7485" data-name="Path 7485" d="M971.153,380.108a.332.332,0,0,0,.15,0c.106.029-.006.073-.1.08Z" transform="translate(209.407 2415.885)" fill="#1d2d47"></path><path id="Path_7489" data-name="Path 7489" d="M955.923,404.858c-.4.029.216.109-.262.048a.249.249,0,0,1,.262-.048" transform="translate(207.173 2419.452)" fill="#1d2d47"></path><path id="Path_7491" data-name="Path 7491" d="M956.311,404.844c.086.07.366.108.143.2-.029-.065-.173-.138-.143-.2" transform="translate(207.266 2419.452)" fill="#1d2d47"></path><path id="Path_7492" data-name="Path 7492" d="M962.869,405.468c.009-.021.107.029.13.04-.093,0-.178.063-.253.027.094-.006.08-.038.122-.068" transform="translate(208.195 2419.542)" fill="#1d2d47"></path><path id="Path_7493" data-name="Path 7493" d="M964.613,405.5a1.687,1.687,0,0,1-.68.118Z" transform="translate(208.366 2419.548)" fill="#1d2d47"></path><path id="Path_7494" data-name="Path 7494" d="M966.1,405.726c.154.053.111.081-.1.079-.015-.033.054-.049.1-.079" transform="translate(208.664 2419.581)" fill="#1d2d47"></path><path id="Path_7495" data-name="Path 7495" d="M966.2,405.6a.577.577,0,0,1,.294.07c-.006-.053-.343.033-.294-.07" transform="translate(208.692 2419.562)" fill="#1d2d47"></path><path id="Path_7496" data-name="Path 7496" d="M969.581,405.763c.093,0,.3-.056.381.013-.1-.048-.452.078-.381-.013" transform="translate(209.179 2419.582)" fill="#1d2d47"></path><path id="Path_7497" data-name="Path 7497" d="M971.153,405.678a.333.333,0,0,0,.15,0c.106.029-.006.073-.1.08Z" transform="translate(209.407 2419.573)" fill="#1d2d47"></path><path id="Path_7501" data-name="Path 7501" d="M955.923,430.429c-.4.029.216.109-.262.048a.249.249,0,0,1,.262-.048" transform="translate(207.173 2423.14)" fill="#1d2d47"></path><path id="Path_7503" data-name="Path 7503" d="M956.311,430.415c.086.07.366.108.143.2-.029-.065-.173-.138-.143-.2" transform="translate(207.266 2423.14)" fill="#1d2d47"></path><path id="Path_7504" data-name="Path 7504" d="M962.869,431.039c.009-.021.107.029.13.04-.093,0-.178.063-.253.027.094-.006.08-.038.122-.068" transform="translate(208.195 2423.23)" fill="#1d2d47"></path><path id="Path_7505" data-name="Path 7505" d="M964.613,431.074a1.689,1.689,0,0,1-.68.118Z" transform="translate(208.366 2423.235)" fill="#1d2d47"></path><path id="Path_7506" data-name="Path 7506" d="M966.1,431.3c.154.053.111.081-.1.079-.015-.033.054-.049.1-.079" transform="translate(208.664 2423.268)" fill="#1d2d47"></path><path id="Path_7507" data-name="Path 7507" d="M966.2,431.174a.578.578,0,0,1,.294.07c-.006-.053-.343.033-.294-.07" transform="translate(208.692 2423.25)" fill="#1d2d47"></path><path id="Path_7508" data-name="Path 7508" d="M969.581,431.333c.093,0,.3-.056.381.013-.1-.048-.452.078-.381-.013" transform="translate(209.179 2423.269)" fill="#1d2d47"></path><path id="Path_7509" data-name="Path 7509" d="M971.153,431.249a.333.333,0,0,0,.15,0c.106.029-.006.073-.1.08Z" transform="translate(209.407 2423.261)" fill="#1d2d47"></path><path id="Path_7513" data-name="Path 7513" d="M955.923,456c-.4.029.216.109-.262.048a.249.249,0,0,1,.262-.048" transform="translate(207.173 2426.828)" fill="#1d2d47"></path><path id="Path_7515" data-name="Path 7515" d="M956.311,455.985c.086.07.366.108.143.2-.029-.065-.173-.138-.143-.2" transform="translate(207.266 2426.829)" fill="#1d2d47"></path><path id="Path_7516" data-name="Path 7516" d="M962.869,456.61c.009-.021.107.029.13.04-.093,0-.178.063-.253.027.094-.006.08-.038.122-.068" transform="translate(208.195 2426.917)" fill="#1d2d47"></path><path id="Path_7517" data-name="Path 7517" d="M964.613,456.645a1.688,1.688,0,0,1-.68.118Z" transform="translate(208.366 2426.924)" fill="#1d2d47"></path><path id="Path_7518" data-name="Path 7518" d="M966.1,456.867c.154.053.111.081-.1.079-.015-.033.054-.049.1-.079" transform="translate(208.664 2426.956)" fill="#1d2d47"></path><path id="Path_7519" data-name="Path 7519" d="M966.2,456.744a.578.578,0,0,1,.294.07c-.006-.053-.343.033-.294-.07" transform="translate(208.692 2426.937)" fill="#1d2d47"></path><path id="Path_7520" data-name="Path 7520" d="M969.581,456.9c.093,0,.3-.056.381.013-.1-.048-.452.078-.381-.013" transform="translate(209.179 2426.958)" fill="#1d2d47"></path><path id="Path_7521" data-name="Path 7521" d="M971.153,456.819a.332.332,0,0,0,.15,0c.106.029-.006.073-.1.08Z" transform="translate(209.407 2426.948)" fill="#1d2d47"></path><path id="Path_7525" data-name="Path 7525" d="M955.923,481.57c-.4.029.216.109-.262.048a.249.249,0,0,1,.262-.048" transform="translate(207.173 2430.515)" fill="#1d2d47"></path><path id="Path_7527" data-name="Path 7527" d="M956.311,481.556c.086.07.366.108.143.2-.029-.065-.173-.138-.143-.2" transform="translate(207.266 2430.516)" fill="#1d2d47"></path><path id="Path_7528" data-name="Path 7528" d="M962.869,482.18c.009-.021.107.027.13.04-.093,0-.178.063-.253.027.094-.006.08-.038.122-.068" transform="translate(208.195 2430.605)" fill="#1d2d47"></path><rect id="Rectangle_1809" data-name="Rectangle 1809" width="150" height="50" rx="3" transform="translate(990.283 2529.846)" fill="#ffefc4"></rect><path id="Rectangle_1814" data-name="Rectangle 1814" d="M2,0H44.169a2,2,0,0,1,2,2V26.5a0,0,0,0,1,0,0H0a0,0,0,0,1,0,0V2A2,2,0,0,1,2,0Z" transform="translate(1093.114 2585.846)" fill="#ffefc4"></path><path id="Rectangle_1815" data-name="Rectangle 1815" d="M2,0H44.169a2,2,0,0,1,2,2V26.5a0,0,0,0,1,0,0H0a0,0,0,0,1,0,0V2A2,2,0,0,1,2,0Z" transform="translate(1041.699 2585.846)" fill="#ffefc4"></path><path id="Rectangle_1816" data-name="Rectangle 1816" d="M2,0H44.169a2,2,0,0,1,2,2V26.5a0,0,0,0,1,0,0H0a0,0,0,0,1,0,0V2A2,2,0,0,1,2,0Z" transform="translate(990.283 2585.846)" fill="#ffefc4"></path><path id="Path_7529" data-name="Path 7529" d="M964.613,482.215a1.688,1.688,0,0,1-.68.118Z" transform="translate(208.366 2430.611)" fill="#1d2d47"></path><path id="Path_7530" data-name="Path 7530" d="M966.1,482.437c.154.053.111.081-.1.079-.015-.033.054-.049.1-.079" transform="translate(208.664 2430.643)" fill="#1d2d47"></path><path id="Path_7531" data-name="Path 7531" d="M966.2,482.315a.577.577,0,0,1,.294.07c-.006-.053-.343.033-.294-.07" transform="translate(208.692 2430.625)" fill="#1d2d47"></path><path id="Path_7532" data-name="Path 7532" d="M969.581,482.474c.093,0,.3-.056.381.013-.1-.048-.452.078-.381-.013" transform="translate(209.179 2430.645)" fill="#1d2d47"></path><path id="Path_7533" data-name="Path 7533" d="M971.153,482.39a.368.368,0,0,0,.15,0c.106.029-.006.073-.1.08Z" transform="translate(209.407 2430.636)" fill="#1d2d47"></path><path id="Path_7629" data-name="Path 7629" d="M866.034,215.484c-.975-3.882-2.032-7.828-4.218-11.182-3.818-5.859-10.5-9.1-16.954-11.8-15.24-6.377-40.316-11.567-43.63-11.97,0,0-16.822,5.562-25.344,6.8-5.543.8-15.764-1.1-17.155-1.513-1.192-.351-6.084-3.565-6.991-3.728-5.194-.933-13.049.277-13.049.277-16.685,4.086-15.569,6.267-30.957,14.169-4.309,2.214-8.611,4.615-12.024,8.053-4.153,4.183-6.74,9.642-9.011,15.082a203.356,203.356,0,0,0-12.332,41.575l-9.618,44.669,11.774,98.364,34.049-1.818-7.2-84.513,8.574-21.137c-1.626,22.1,4.213,76.295,4.213,76.295a83.714,83.714,0,0,1,30.216-6.4c17.145-.365,41.26,5.055,41.26,5.055l37.865,4.791c1.54-8.8,9.205-16.274,8.327-25.079l41.546-.652a5.52,5.52,0,0,0,2.81-.771c2.109-1.293,1.945-3.224,1.78-5.917a470.64,470.64,0,0,0-13.932-128.645M836.24,319.219l.12-14.693,3.627,13.186Z" transform="translate(165.221 2387.104)" fill="#ffcb3c"></path><path id="Path_7630" data-name="Path 7630" d="M707.416,253.725c-2.83-4.838-5.608-14.844-8.257-29.742-1.968-11.07-3.125-20.856-3.137-20.953l.909-.106c.046.388,4.643,39,11.275,50.338Z" transform="translate(169.731 2390.334)" fill="#001230"></path><path id="Path_7631" data-name="Path 7631" d="M814.542,234.741l-.843-.351a107.856,107.856,0,0,1,22.409-31.706l.637.656a106.937,106.937,0,0,0-22.2,31.4" transform="translate(186.701 2390.299)" fill="#001230"></path><path id="Path_7632" data-name="Path 7632" d="M794.976,143.058a4.149,4.149,0,0,0-3.158-2.965,6.448,6.448,0,0,0-3.283.764q.127-1.359.253-2.719a132.99,132.99,0,0,0,.792-13.506,66.279,66.279,0,0,0-.944-10.54,20.376,20.376,0,0,0-1.439-5.184,15.342,15.342,0,0,0-3.308-4.5c-5.215-5.054-12.893-7.093-20.12-6.38s-14.839,2.933-20.717,7.2c-2.477,1.8-4.648,4.813-4.977,6.733a135.926,135.926,0,0,0-1.429,27.366,5.124,5.124,0,0,0-5.123,2.544,9.322,9.322,0,0,0-.844,4.038,15.97,15.97,0,0,0,.643,6.243,6.456,6.456,0,0,0,4.343,4.223,3.383,3.383,0,0,0,1.843-.08c.181,2.812.412,5.622.834,8.408a13.986,13.986,0,0,0,1.577,5.181,14.329,14.329,0,0,0,3.759,3.788c.722.553,1.465,1.079,2.206,1.605.256,5.511.546,11,.894,16.849-2.613.222-5.135,1.3-7.749,1.528a38.73,38.73,0,0,0,2.3,10.974,18.334,18.334,0,0,0,6.586,8.4,26.149,26.149,0,0,0,6.306,2.788,37.452,37.452,0,0,0,12.528,2.37c4.271-.1,8.665-1.588,11.506-4.777,2.2-2.465,3.291-5.7,4.179-8.879,1.1-3.925,6.151-6.45,6.784-10.476-1.966-.286-8.232-2.077-10.281-2.536a87.146,87.146,0,0,1-2.779-13.367,18.624,18.624,0,0,0,5.115-3.933c4.034-4.509,5.1-10.791,5.726-16.882a7.063,7.063,0,0,0,5.683-3.023,14.943,14.943,0,0,0,2.407-6.73,10.027,10.027,0,0,0-.111-4.529" transform="translate(174.722 2375.188)" fill="#ffefc4"></path><path id="Path_7633" data-name="Path 7633" d="M766.243,218.582a38.877,38.877,0,0,1-12.087-2.391,26.813,26.813,0,0,1-6.388-2.83,18.563,18.563,0,0,1-6.714-8.559,37.99,37.99,0,0,1-2.324-11.075l-.031-.343.343-.029a23.943,23.943,0,0,0,3.819-.755,26.877,26.877,0,0,1,3.6-.74c-.326-5.509-.61-10.865-.867-16.355-.7-.5-1.4-.994-2.079-1.516a14.737,14.737,0,0,1-3.843-3.886,14.278,14.278,0,0,1-1.622-5.306c-.426-2.8-.65-5.6-.81-8.015a3.836,3.836,0,0,1-1.6-.029,6.782,6.782,0,0,1-4.591-4.44,16.355,16.355,0,0,1-.664-6.377,9.619,9.619,0,0,1,.884-4.186,5.526,5.526,0,0,1,5.07-2.762c-.331-10.948.117-19.3,1.446-27.042.356-2.077,2.6-5.131,5.113-6.952,5.35-3.882,12.768-6.46,20.885-7.262,7.8-.763,15.415,1.655,20.392,6.476a15.659,15.659,0,0,1,3.38,4.6,20.686,20.686,0,0,1,1.468,5.27,66.966,66.966,0,0,1,.947,10.594,133.462,133.462,0,0,1-.793,13.534l-.2,2.16a5.821,5.821,0,0,1,2.935-.571,4.442,4.442,0,0,1,3.438,3.2,10.423,10.423,0,0,1,.124,4.684,15.564,15.564,0,0,1-2.47,6.882,7.472,7.472,0,0,1-5.65,3.166c-.6,5.705-1.625,12.123-5.779,16.765a18.668,18.668,0,0,1-5,3.893,87,87,0,0,0,2.682,12.887c.787.183,2.013.508,3.415.878,2.544.672,5.427,1.433,6.642,1.609l.342.05-.053.343c-.349,2.215-1.966,3.986-3.529,5.7-1.359,1.49-2.766,3.031-3.264,4.815-.835,2.991-1.922,6.4-4.252,9.015-2.666,2.992-6.951,4.775-11.754,4.893-.185,0-.371.006-.556.006m-26.8-24.577a36.663,36.663,0,0,0,2.243,10.535,17.889,17.889,0,0,0,6.459,8.249,25.773,25.773,0,0,0,6.225,2.748c3.89,1.284,8.084,2.475,12.412,2.353,4.615-.113,8.718-1.811,11.257-4.662,2.233-2.507,3.29-5.829,4.1-8.745.544-1.941,2-3.542,3.419-5.092,1.476-1.617,2.875-3.15,3.293-5.009-1.39-.254-4.02-.947-6.364-1.566-1.457-.384-2.832-.747-3.588-.917l-.2-.045-.057-.195a87.741,87.741,0,0,1-2.79-13.418l-.031-.233.207-.112a18.173,18.173,0,0,0,5.023-3.859c4.093-4.573,5.057-11.012,5.64-16.687l.032-.319.32.01a6.638,6.638,0,0,0,5.395-2.883,14.2,14.2,0,0,0,2.344-6.579,9.668,9.668,0,0,0-.1-4.371,3.841,3.841,0,0,0-2.877-2.731,6.03,6.03,0,0,0-3.006.7l-.626.262.3-3.286a133.069,133.069,0,0,0,.791-13.473,66.135,66.135,0,0,0-.938-10.484,20.148,20.148,0,0,0-1.412-5.1,15.007,15.007,0,0,0-3.236-4.394c-4.834-4.684-12.251-7.038-19.847-6.285-8,.788-15.3,3.322-20.549,7.134-2.344,1.7-4.516,4.621-4.84,6.513-1.338,7.784-1.777,16.2-1.425,27.3l.013.41-.405-.058a4.8,4.8,0,0,0-4.772,2.367,9.032,9.032,0,0,0-.8,3.891,15.738,15.738,0,0,0,.621,6.108,6.092,6.092,0,0,0,4.1,4.006,3.019,3.019,0,0,0,1.651-.066l.43-.154.029.455c.16,2.492.384,5.437.831,8.377a13.732,13.732,0,0,0,1.531,5.056,14.183,14.183,0,0,0,3.674,3.692c.72.552,1.458,1.076,2.2,1.6l.136.1.008.167c.263,5.655.556,11.164.894,16.844l.019.334-.333.027a23.964,23.964,0,0,0-3.819.755,27.113,27.113,0,0,1-3.586.739" transform="translate(174.679 2375.144)" fill="#0d0f35"></path><path id="Path_7634" data-name="Path 7634" d="M786.192,121.38s-.2,4-1.992,5.782l1.793,3.894,1.083,9.219,1.49-1.7s12.184-17.9-1.592-29.231c0,0-4.9-18.095-28.889-13.847a3.959,3.959,0,0,1,1.925,3.378,33.932,33.932,0,0,0-10.832.074A20.721,20.721,0,0,0,732.4,122.476c.771,5.214,2.037,12.036,3.78,15.781a24.264,24.264,0,0,0,3.484-7.371c.964-3.907-3.83-8.721,2.485-10.076a7.512,7.512,0,0,1-2.06,5.112s20.271,1.467,27.755-5.987,18.347,1.444,18.347,1.444" transform="translate(174.944 2374.749)" fill="#001230"></path><path id="Path_9459" data-name="Path 9459" d="M0,0H16.743V.457H0Z" transform="matrix(0.105, -0.994, 0.994, 0.105, 961.481, 2532.583)" fill="#001230"></path><path id="Path_9460" data-name="Path 9460" d="M0,0H.457V17.032H0Z" transform="translate(911.067 2514.478) rotate(-3.251)" fill="#001230"></path><path id="Path_7635" data-name="Path 7635" d="M768.426,293.635l-16.561-.544v31.627h16.561Z" transform="translate(177.784 2403.336)" fill="#7753ec"></path><path id="Path_9461" data-name="Path 9461" d="M0,0H17.346V.915H0Z" transform="translate(876.402 2686.156) rotate(-85.482)" fill="#001230"></path><path id="Path_9462" data-name="Path 9462" d="M0,0H8.783V.914H0Z" transform="translate(859.811 2704.589)" fill="#001230"></path><path id="Path_7636" data-name="Path 7636" d="M805.658,198.518c-.832,13.534-18.326,24.551-40.932,24.551s-40.97-10.992-40.931-24.551c.063-22.532,19.036-15,37.725-14.3,23.445.873,45.971-15.5,44.138,14.3" transform="translate(173.736 2387.1)" fill="#ffcb3c"></path><path id="Path_7637" data-name="Path 7637" d="M759.342,227.431c-6.048,0-12.811-1.855-16.992-8.776a78.564,78.564,0,0,1-10.508-27.736l.907-.112a77.609,77.609,0,0,0,10.384,27.375c8.559,14.165,28.673,6.013,28.875,5.929l.106-.045.114.011c.121,0,12.558.752,23.734-31.282l.863.3c-11.005,31.545-23.168,31.967-24.57,31.9a38.54,38.54,0,0,1-12.915,2.434" transform="translate(174.896 2388.586)" fill="#001230"></path><path id="Path_7638" data-name="Path 7638" d="M737.238,146.514a11.479,11.479,0,0,0,.673,4.2,8.854,8.854,0,0,0,2.792,3.315c5.881,4.62,16.532,5.886,23.954,4.972,3.423-.422,11.9-1.244,14.572-3.422,4.409-3.593,1.2-6.492,5.3-10.429,1.046-1,2.016-4.091,2.785-5.318a12.647,12.647,0,0,0,1.2-3.244,63.206,63.206,0,0,0,2.066-9.9c.7-6.727-4.187-13.1-10.306-15.985s-13.184-2.912-19.914-2.242a44.237,44.237,0,0,0-13.48,3.1,10.351,10.351,0,0,0-3.661,2.417c-.835.937-5.847,2.645-6.372,3.786-2.052,4.464-1.252,10.208-.85,15.3.175,2.223-.925,3.03-.09,5.04a23.892,23.892,0,0,1,1.332,8.409" transform="translate(175.424 2376.66)" fill="#001230"></path><path id="Path_7639" data-name="Path 7639" d="M813.032,338.757l-.91-.091c.041-.417,4.175-41.885,1.771-69.588L814.8,269c2.412,27.788-1.73,69.342-1.772,69.758" transform="translate(186.473 2399.863)" fill="#001230"></path><path id="Path_7640" data-name="Path 7640" d="M734.372,181.863c1.584,2.187,1.893,5.142,3.647,7.195,2.107,2.467,5.669,2.968,8.9,3.232,11.018.9,22.364.945,32.815-2.66a62.474,62.474,0,0,1,7.249-2.381,57.768,57.768,0,0,0,6.363-1.224c2.05-.684,2.541-2.99,3.032-5.1,0,0-3.435-1.278-10.743.211-12.065,2.457-51.264.723-51.264.723" transform="translate(175.261 2387.088)" fill="#0d0f35"></path><path id="Path_7641" data-name="Path 7641" d="M842.511,502.092l-35.67-2.514,16-96.487h49.447Z" transform="translate(185.712 2419.2)" fill="#ffefc4" stroke="#03122e" stroke-width="1"></path><path id="Path_7642" data-name="Path 7642" d="M831.1,311.4l41.479,16.586c8.355,3.341,12.9,13.666,10.29,23.359L878.2,368.677H831.1Z" transform="translate(189.211 2431.738)" fill="#ffefc4" stroke="#03122e" stroke-width="1"></path><path id="Path_7643" data-name="Path 7643" d="M883.634,406.771H815.479v-29.2H866.79a23.02,23.02,0,0,1,23.02,23.02,6.177,6.177,0,0,1-6.176,6.176" transform="translate(186.958 2415.521)" fill="#ffefc4" stroke="#0d0f35" stroke-width="1"></path><path id="Path_9437" data-name="Path 9437" d="M3002.079,1007.449a42.532,42.532,0,0,1-42.531-42.531V814.343a7.672,7.672,0,0,1,0-15.342h174.546c18.543,0,14.552,15.032,14.552,33.576v174.873Z" transform="translate(-2126.82 1814.841)" fill="#ffefc4" stroke="#0d0f35" stroke-width="1"></path><path id="Path_9438" data-name="Path 9438" d="M0,0H169.835V.846H0Z" transform="translate(841.705 2628.764)" fill="#001230"></path><path id="Path_9439" data-name="Path 9439" d="M0,0H169.835V.846H0Z" transform="translate(841.705 2669.376)" fill="#001230"></path><path id="Path_9463" data-name="Path 9463" d="M0,0H169.835V.846H0Z" transform="translate(841.705 2717.607)" fill="#001230"></path><path id="Path_9467" data-name="Path 9467" d="M0,0H169.835V.846H0Z" transform="translate(841.705 2765.839)" fill="#001230"></path><path id="Path_7646" data-name="Path 7646" d="M824.268,236.36a6.608,6.608,0,1,1,0-13.216v.844a5.763,5.763,0,0,0,0,11.526Z" transform="translate(187.272 2393.249)" fill="#001230"></path><path id="Path_7647" data-name="Path 7647" d="M811.932,428.337h-80a25.245,25.245,0,0,1-25.246-25.246H837.178a25.246,25.246,0,0,1-25.246,25.246" transform="translate(171.269 2419.2)" fill="#0d0f35"></path><path id="Path_9474" data-name="Path 9474" d="M0,0H10.428V100.04H0Z" transform="translate(938.836 2842.428)" fill="#0d0f35"></path><path id="Path_9493" data-name="Path 9493" d="M0,0H147.826V5.214H0Z" transform="translate(870.136 2942.47)" fill="#0d0f35"></path><path id="Path_9494" data-name="Path 9494" d="M0,0H5.214V23.052H0Z" transform="translate(870.136 2942.468)" fill="#0d0f35"></path><path id="Path_9495" data-name="Path 9495" d="M0,0H5.214V23.052H0Z" transform="translate(941.442 2942.468)" fill="#0d0f35"></path><path id="Path_7648" data-name="Path 7648" d="M765.462,540.743h0a8.026,8.026,0,0,1-8.027-8.027v-6.1a8.027,8.027,0,1,1,16.053,0v6.1a8.026,8.026,0,0,1-8.027,8.027" transform="translate(178.587 2435.856)" fill="#0d0f35"></path><path id="Path_9496" data-name="Path 9496" d="M0,0H5.214V23.052H0Z" transform="translate(1012.748 2942.468)" fill="#0d0f35"></path><path id="Path_7649" data-name="Path 7649" d="M714.605,529.665a11.078,11.078,0,1,0-11.078,11.078,11.079,11.079,0,0,0,11.078-11.078" transform="translate(169.215 2435.856)" fill="#0d0f35"></path><path id="Path_7650" data-name="Path 7650" d="M839.244,529.665a11.078,11.078,0,1,0-11.078,11.078,11.079,11.079,0,0,0,11.078-11.078" transform="translate(187.189 2435.856)" fill="#0d0f35"></path><path id="Path_7651" data-name="Path 7651" d="M870.761,414.817l-3.307-.7,14.253-67.058a16.1,16.1,0,0,0-15.75-19.449H832.424v-3.381h33.533a19.483,19.483,0,0,1,19.057,23.534Z" transform="translate(189.401 2407.826)" fill="#0d0f35"></path></g></svg> 